# 3ds Max Wavefront OBJ Exporter v0.97b - (c)2007 guruware
# File Created: 07.05.2018 09:00:04

#
# object 11
#

v  -0.6231 2.8805 0.0493
v  -0.2125 2.8302 0.0493
v  -0.1772 2.8258 0.0138
v  -0.6231 2.8805 -0.4653
v  -0.1772 2.8258 -0.4297
v  -0.2125 2.8302 -0.4653
v  -0.6584 2.8848 -0.4297
v  -0.6584 2.8848 0.0138
v  -0.9808 2.5663 0.4464
v  0.1442 2.5663 0.4464
v  -0.1948 2.8166 0.0895
v  -0.6417 2.8166 0.0895
v  -0.1357 2.8166 0.0304
v  0.2034 2.5663 -0.8033
v  -0.1357 2.8166 -0.4463
v  0.2034 2.5663 0.3873
v  0.1442 2.5663 -0.8624
v  -0.9808 2.5663 -0.8624
v  -0.6417 2.8166 -0.5055
v  -0.1948 2.8166 -0.5055
v  -0.7009 2.8166 -0.4463
v  -1.0399 2.5663 0.3873
v  -0.7009 2.8166 0.0304
v  -1.0399 2.5663 -0.8033
v  -0.1982 2.8166 0.0813
v  -0.6383 2.8166 0.0813
v  -0.1439 2.8166 0.0270
v  -0.1439 2.8166 -0.4429
v  -0.1982 2.8166 -0.4972
v  -0.6383 2.8166 -0.4972
v  -0.6926 2.8166 -0.4429
v  -0.6926 2.8166 0.0270
v  -0.6349 2.8118 0.0730
v  -0.2016 2.8118 0.0730
v  -0.1522 2.8118 0.0236
v  -0.1522 2.8118 -0.4395
v  -0.2016 2.8118 -0.4889
v  -0.6349 2.8118 -0.4889
v  -0.6843 2.8118 -0.4395
v  -0.6843 2.8118 0.0236
v  -0.2051 2.8118 0.0647
v  -0.6315 2.8118 0.0647
v  -0.1605 2.8118 0.0201
v  -0.1605 2.8118 -0.4361
v  -0.2051 2.8118 -0.4806
v  -0.6315 2.8118 -0.4806
v  -0.6760 2.8118 -0.4361
v  -0.6760 2.8118 0.0201
v  -0.2102 2.8228 0.0572
v  -0.6272 2.8739 0.0572
v  -0.1703 2.8179 0.0170
v  -0.1703 2.8179 -0.4330
v  -0.2102 2.8228 -0.4731
v  -0.6272 2.8739 -0.4731
v  -0.6671 2.8787 -0.4330
v  -0.6671 2.8787 0.0170
# 56 vertices

vn 0.1216 0.9926 0.0000
vn 0.1216 0.9926 -0.0000
vn 0.0000 0.8188 0.5741
vn 0.5939 0.8046 -0.0000
vn 0.0000 0.8188 -0.5741
vn -0.5939 0.8046 -0.0000
vn 0.3205 0.8914 0.3205
vn -0.3205 0.8914 0.3205
vn 0.3205 0.8914 -0.3205
vn -0.3205 0.8914 -0.3205
vn 0.0000 1.0000 -0.0000
vn 0.0000 0.8682 -0.4961
vn -0.3508 0.8682 -0.3508
vn -0.4961 0.8683 -0.0000
vn -0.3508 0.8682 0.3508
vn 0.0000 0.8682 0.4961
vn 0.3508 0.8682 0.3508
vn 0.4961 0.8683 -0.0000
vn 0.3508 0.8682 -0.3508
vn 0.0000 0.5660 0.8244
vn 0.0146 0.1191 0.9928
vn 0.3908 0.8334 0.3907
vn 0.5905 0.6254 0.5101
vn 0.5255 0.8508 -0.0000
vn 0.5481 0.6318 -0.5481
vn 0.4235 0.8486 -0.3171
vn 0.0000 0.1201 -0.9928
vn 0.0719 0.5871 -0.8063
vn -0.7015 0.1263 -0.7014
vn -0.6953 0.1330 -0.7063
vn -0.9912 0.1323 -0.0000
vn -0.7009 0.1327 0.7008
vn -0.6964 0.1258 0.7065
vn 0.0906 0.7393 0.6672
vn 0.5589 0.6820 0.4718
vn 0.7529 0.6582 -0.0000
vn 0.5589 0.6820 -0.4718
vn 0.0906 0.7393 -0.6672
vn -0.3777 0.7967 -0.4718
vn -0.5717 0.8205 -0.0000
vn -0.3777 0.7967 0.4718
# 41 vertex normals

vt 0.1099 0.0133 0.0000
vt 0.8928 0.0158 0.0000
vt 0.9860 0.1044 0.0000
vt 0.1072 0.9842 0.0000
vt 0.9833 0.8982 0.0000
vt 0.8901 0.9867 0.0000
vt 0.0140 0.8956 0.0000
vt 0.0167 0.1018 0.0000
vt 0.0476 0.0000 0.0000
vt 0.9524 0.0000 0.0000
vt 0.8954 1.0000 0.0000
vt 0.1046 1.0000 0.0000
vt 0.0994 1.0000 0.0000
vt 0.9548 0.0000 0.0000
vt 0.9006 1.0000 0.0000
vt 0.0452 0.0000 0.0000
vt 0.0342 1.1386 0.0000
vt -0.0229 0.1386 0.0000
vt 0.9658 1.1386 0.0000
vt 1.0229 0.1386 0.0000
vt -0.0217 0.1316 0.0000
vt 0.0324 1.1316 0.0000
vt 0.8954 0.0000 0.0000
vt 0.1046 0.0000 0.0000
vt 1.0000 0.0994 0.0000
vt 1.0000 0.9006 0.0000
vt 0.0000 0.9006 0.0000
vt 0.0000 0.0994 0.0000
# 28 texture coords

g 11
f 1/1/1 2/2/1 3/3/1 
f 4/4/2 5/5/2 6/6/2 
f 7/7/2 8/8/1 5/5/2 
f 5/5/2 4/4/2 7/7/2 
f 8/8/1 3/3/1 5/5/2 
f 8/8/1 1/1/1 3/3/1 
f 9/9/3 10/10/3 11/11/3 
f 11/11/3 12/12/3 9/9/3 
f 13/13/4 14/14/4 15/15/4 
f 14/14/4 13/13/4 16/16/4 
f 17/9/5 18/10/5 19/11/5 
f 19/11/5 20/12/5 17/9/5 
f 21/13/6 22/14/6 23/15/6 
f 22/14/6 21/13/6 24/16/6 
f 11/17/7 16/16/7 13/13/7 
f 16/16/7 11/17/7 10/18/7 
f 12/19/8 23/15/8 22/14/8 
f 22/14/8 9/20/8 12/19/8 
f 14/21/9 17/9/9 20/12/9 
f 20/12/9 15/22/9 14/21/9 
f 19/17/10 24/16/10 21/13/10 
f 24/16/10 19/17/10 18/18/10 
f 12/12/11 11/11/11 25/23/11 
f 25/23/11 26/24/11 12/12/11 
f 25/23/11 13/13/11 27/25/11 
f 13/13/11 25/23/11 11/17/11 
f 13/13/11 15/15/11 28/26/11 
f 28/26/11 27/25/11 13/13/11 
f 15/22/11 20/12/11 29/11/11 
f 29/11/11 28/26/11 15/22/11 
f 20/12/11 19/11/11 30/12/11 
f 30/12/11 29/11/11 20/12/11 
f 30/12/11 21/13/11 31/27/11 
f 21/13/11 30/12/11 19/17/11 
f 21/13/11 23/15/11 32/28/11 
f 32/28/11 31/27/11 21/13/11 
f 23/15/11 12/19/11 26/24/11 
f 26/24/11 32/28/11 23/15/11 
f 33/24/12 25/23/12 34/23/12 
f 25/23/12 33/24/12 26/24/12 
f 25/23/13 27/25/13 35/25/13 
f 35/25/13 34/23/13 25/23/13 
f 27/25/14 28/26/14 36/26/14 
f 36/26/14 35/25/14 27/25/14 
f 36/26/15 29/11/15 37/11/15 
f 29/11/15 36/26/15 28/26/15 
f 37/11/16 30/12/16 38/12/16 
f 30/12/16 37/11/16 29/11/16 
f 30/12/17 31/27/17 39/27/17 
f 39/27/17 38/12/17 30/12/17 
f 31/27/18 32/28/18 40/28/18 
f 40/28/18 39/27/18 31/27/18 
f 40/28/19 26/24/19 33/24/19 
f 26/24/19 40/28/19 32/28/19 
f 33/24/11 34/23/11 41/23/11 
f 41/23/11 42/24/11 33/24/11 
f 41/23/11 35/25/11 43/25/11 
f 35/25/11 41/23/11 34/23/11 
f 35/25/11 36/26/11 44/26/11 
f 44/26/11 43/25/11 35/25/11 
f 36/26/11 37/11/11 45/11/11 
f 45/11/11 44/26/11 36/26/11 
f 37/11/11 38/12/11 46/12/11 
f 46/12/11 45/11/11 37/11/11 
f 46/12/11 39/27/11 47/27/11 
f 39/27/11 46/12/11 38/12/11 
f 39/27/11 40/28/11 48/28/11 
f 48/28/11 47/27/11 39/27/11 
f 40/28/11 33/24/11 42/24/11 
f 42/24/11 48/28/11 40/28/11 
f 42/24/20 41/23/20 49/23/20 
f 49/23/21 50/24/21 42/24/21 
f 41/23/22 43/25/22 51/25/22 
f 51/25/23 49/23/23 41/23/23 
f 43/25/24 44/26/24 52/26/24 
f 52/26/24 51/25/24 43/25/24 
f 44/26/25 45/11/25 53/11/25 
f 53/11/26 52/26/26 44/26/26 
f 45/11/27 46/12/27 54/12/27 
f 54/12/28 53/11/28 45/11/28 
f 46/12/29 47/27/29 55/27/29 
f 55/27/30 54/12/30 46/12/30 
f 47/27/31 48/28/31 56/28/31 
f 56/28/31 55/27/31 47/27/31 
f 48/28/32 42/24/32 50/24/32 
f 50/24/33 56/28/33 48/28/33 
f 2/2/34 50/24/34 49/23/34 
f 50/24/34 2/2/34 1/1/34 
f 3/3/35 49/23/35 51/25/35 
f 49/23/35 3/3/35 2/2/35 
f 3/3/36 51/25/36 52/26/36 
f 52/26/36 5/5/36 3/3/36 
f 5/5/37 52/26/37 53/11/37 
f 53/11/37 6/6/37 5/5/37 
f 6/6/38 53/11/38 54/12/38 
f 54/12/38 4/4/38 6/6/38 
f 4/4/39 54/12/39 55/27/39 
f 55/27/39 7/7/39 4/4/39 
f 7/7/40 55/27/40 56/28/40 
f 56/28/40 8/8/40 7/7/40 
f 1/1/41 56/28/41 50/24/41 
f 56/28/41 1/1/41 8/8/41 
# 102 faces

