# 3ds Max Wavefront OBJ Exporter v0.97b - (c)2007 guruware
# File Created: 06.07.2018 12:42:18

#
# object 2
#

v  3.3131 6.3713 8.6008
v  -2.4799 6.3713 8.6008
v  -2.4799 6.3713 13.7645
v  3.3131 6.3713 13.7645
v  3.5111 1.5046 13.9624
v  -2.6779 1.5046 13.9624
v  -2.6779 0.9099 13.9624
v  3.5111 0.9099 13.9624
v  3.5111 1.5046 8.4028
v  3.5111 0.9099 8.4028
v  -2.6779 1.5046 8.4028
v  -2.6779 0.9099 8.4028
v  3.1858 1.5052 13.6372
v  -2.3526 1.5052 13.6372
v  3.1858 1.5052 8.7281
v  -2.3526 1.5052 8.7281
v  3.1864 1.6605 13.6378
v  -2.3532 1.6605 13.6378
v  3.1864 1.6605 8.7275
v  -2.3532 1.6605 8.7275
v  3.0037 1.6599 13.4551
v  -2.1705 1.6599 13.4551
v  3.0037 1.6599 8.9102
v  -2.1705 1.6599 8.9102
v  2.0683 4.8602 13.2012
v  -1.2351 4.8602 13.2012
v  -1.2351 2.5953 13.2012
v  2.0683 2.5953 13.2012
v  2.7499 4.8602 9.8457
v  2.7499 4.8602 12.5196
v  2.7499 2.5953 12.5196
v  2.7499 2.5953 9.8457
v  -1.2351 4.8602 9.1641
v  2.0683 4.8602 9.1641
v  2.0683 2.5953 9.1641
v  -1.2351 2.5953 9.1641
v  -1.9166 4.8602 12.5196
v  -1.9166 4.8602 9.8457
v  -1.9166 2.5953 9.8457
v  -1.9166 2.5953 12.5196
v  3.2120 5.7962 13.6634
v  -2.3788 5.7962 13.6634
v  -2.1705 5.7956 13.4551
v  3.0037 5.7956 13.4551
v  3.2120 5.7962 8.7019
v  3.0037 5.7956 8.9102
v  -2.3788 5.7962 8.7019
v  -2.1705 5.7956 8.9102
v  3.3734 6.1977 13.8248
v  -2.5402 6.1977 13.8248
v  3.3734 6.1977 8.5405
v  -2.5402 6.1977 8.5405
v  3.3131 6.1983 13.7645
v  -2.4799 6.1983 13.7645
v  3.3131 6.1983 8.6008
v  -2.4799 6.1983 8.6008
v  2.6069 2.0567 13.4551
v  -1.7737 2.0567 13.4551
v  2.6069 5.3988 13.4551
v  -1.7737 5.3988 13.4551
v  3.0037 2.0567 9.3070
v  3.0037 2.0567 13.0582
v  3.0037 5.3988 9.3070
v  3.0037 5.3988 13.0582
v  -1.7737 2.0567 8.9102
v  2.6069 2.0567 8.9102
v  -1.7737 5.3988 8.9102
v  2.6069 5.3988 8.9102
v  -2.1705 2.0567 13.0582
v  -2.1705 2.0567 9.3070
v  -2.1705 5.3988 13.0582
v  -2.1705 5.3988 9.3070
v  2.6069 2.0567 13.3858
v  -1.7737 2.0567 13.3858
v  2.6069 5.3988 13.3858
v  -1.7737 5.3988 13.3858
v  2.9345 2.0567 9.3070
v  2.9345 2.0567 13.0582
v  2.9345 5.3988 9.3070
v  2.9345 5.3988 13.0582
v  -1.7737 2.0567 8.9795
v  2.6069 2.0567 8.9795
v  -1.7737 5.3988 8.9795
v  2.6069 5.3988 8.9795
v  -2.1013 2.0567 13.0582
v  -2.1013 2.0567 9.3070
v  -2.1013 5.3988 13.0582
v  -2.1013 5.3988 9.3070
v  2.0683 2.5953 13.3858
v  -1.2351 2.5953 13.3858
v  2.0683 4.8602 13.3858
v  -1.2351 4.8602 13.3858
v  2.9345 2.5953 9.8457
v  2.9345 2.5953 12.5196
v  2.9345 4.8602 9.8457
v  2.9345 4.8602 12.5196
v  -1.2351 2.5953 8.9795
v  2.0683 2.5953 8.9795
v  -1.2351 4.8602 8.9795
v  2.0683 4.8602 8.9795
v  -2.1013 2.5953 12.5196
v  -2.1013 2.5953 9.8457
v  -2.1013 4.8602 12.5196
v  -2.1013 4.8602 9.8457
# 104 vertices

vn 0.0000 1.0000 -0.0000
vn 0.0000 0.0000 1.0000
vn 1.0000 0.0000 -0.0000
vn 0.0000 0.0000 -1.0000
vn -1.0000 0.0000 -0.0000
vn 0.0000 1.0000 0.0019
vn 0.0019 1.0000 -0.0000
vn 0.0000 1.0000 -0.0019
vn -0.0019 1.0000 -0.0000
vn 0.0000 -0.0039 1.0000
vn 1.0000 -0.0039 -0.0000
vn 0.0000 -0.0039 -1.0000
vn -1.0000 -0.0039 -0.0000
vn 0.0000 1.0000 -0.0033
vn -0.0033 1.0000 -0.0000
vn 0.0000 1.0000 0.0033
vn 0.0033 1.0000 -0.0000
vn 0.0000 -1.0000 0.0029
vn 0.0029 -1.0000 -0.0000
vn 0.0000 -1.0000 -0.0029
vn -0.0029 -1.0000 -0.0000
vn 0.0000 -0.3730 0.9278
vn 0.9278 -0.3730 -0.0000
vn 0.0000 -0.3730 -0.9278
vn -0.9278 -0.3730 -0.0000
vn 0.0000 0.9999 0.0101
vn 0.0101 0.9999 -0.0000
vn 0.0000 0.9999 -0.0101
vn -0.0101 0.9999 -0.0000
vn 0.0000 -1.0000 -0.0000
# 30 vertex normals

vt 1.0000 1.0000 0.0000
vt 0.0000 1.0000 0.0000
vt 0.0000 0.0000 0.0000
vt 1.0000 0.0000 0.0000
vt 1.0000 0.1089 0.0000
vt 0.0000 0.1089 0.0000
vt -0.0000 0.1089 0.0000
vt 1.0000 -0.0000 0.0000
vt -0.0000 -0.0000 0.0000
vt 0.9475 0.1374 0.0000
vt 0.0525 0.1374 0.0000
vt 0.0526 0.1090 0.0000
vt 0.9474 0.1090 0.0000
vt 0.0584 0.1374 0.0000
vt 0.9416 0.1374 0.0000
vt 0.9415 0.1090 0.0000
vt 0.0585 0.1090 0.0000
vt 0.7669 0.7233 0.0000
vt 0.2331 0.7233 0.0000
vt 0.2331 0.3086 0.0000
vt 0.7669 0.3086 0.0000
vt 0.2595 0.7233 0.0000
vt 0.7405 0.7233 0.0000
vt 0.7405 0.3086 0.0000
vt 0.2595 0.3086 0.0000
vt 0.9778 0.9682 0.0000
vt 0.0222 0.9682 0.0000
vt 0.0483 0.8947 0.0000
vt 0.9517 0.8947 0.0000
vt 0.0248 0.9682 0.0000
vt 0.9752 0.9682 0.0000
vt 0.9462 0.8947 0.0000
vt 0.0538 0.8947 0.0000
vt 0.9680 1.0000 0.0000
vt 0.0320 1.0000 0.0000
vt 0.0320 0.9683 0.0000
vt 0.9680 0.9683 0.0000
vt 0.0356 1.0000 0.0000
vt 0.9644 1.0000 0.0000
vt 0.9644 0.9683 0.0000
vt 0.0356 0.9683 0.0000
vt 0.0820 0.1373 0.0000
vt 0.9180 0.1373 0.0000
vt 0.8539 0.2100 0.0000
vt 0.1461 0.2100 0.0000
vt 0.9180 0.8946 0.0000
vt 0.8539 0.8219 0.0000
vt 0.0820 0.8946 0.0000
vt 0.1461 0.8219 0.0000
vt 0.9087 0.1373 0.0000
vt 0.0913 0.1373 0.0000
vt 0.1626 0.2100 0.0000
vt 0.8374 0.2100 0.0000
vt 0.0913 0.8946 0.0000
vt 0.1626 0.8219 0.0000
vt 0.9087 0.8946 0.0000
vt 0.8374 0.8219 0.0000
# 57 texture coords

g 2
s 4
f 1/1/1 2/2/1 3/3/1 
f 3/3/1 4/4/1 1/1/1 
s 8
f 5/5/2 6/6/2 7/3/2 
f 7/3/2 8/4/2 5/5/2 
s 16
f 9/6/3 5/5/3 8/4/3 
f 8/4/3 10/3/3 9/6/3 
s 32
f 11/7/4 9/5/4 10/8/4 
f 10/8/4 12/9/4 11/7/4 
s 64
f 6/5/5 11/6/5 12/3/5 
f 12/3/5 7/4/5 6/5/5 
s off
f 13/4/6 14/3/6 6/3/6 
f 6/3/6 5/4/6 13/4/6 
f 15/1/7 13/4/7 5/4/7 
f 5/4/7 9/1/7 15/1/7 
f 16/2/8 15/1/8 9/1/8 
f 9/1/8 11/2/8 16/2/8 
f 14/3/9 16/2/9 11/2/9 
f 11/2/9 6/3/9 14/3/9 
f 17/10/10 18/11/10 14/12/10 
f 14/12/10 13/13/10 17/10/10 
f 19/14/11 17/15/11 13/16/11 
f 13/16/11 15/17/11 19/14/11 
f 20/11/12 19/10/12 15/13/12 
f 15/13/12 16/12/12 20/11/12 
f 18/15/13 20/14/13 16/17/13 
f 16/17/13 14/16/13 18/15/13 
f 21/4/14 22/3/14 18/3/14 
f 18/3/14 17/4/14 21/4/14 
f 23/1/15 21/4/15 17/4/15 
f 17/4/15 19/1/15 23/1/15 
f 24/2/16 23/1/16 19/1/16 
f 19/1/16 20/2/16 24/2/16 
f 22/3/17 24/2/17 20/2/17 
f 20/2/17 18/3/17 22/3/17 
f 25/18/2 26/19/2 27/20/2 
f 27/20/2 28/21/2 25/18/2 
f 29/22/3 30/23/3 31/24/3 
f 31/24/3 32/25/3 29/22/3 
f 33/19/4 34/18/4 35/21/4 
f 35/21/4 36/20/4 33/19/4 
f 37/23/5 38/22/5 39/25/5 
f 39/25/5 40/24/5 37/23/5 
f 41/4/18 42/3/18 43/3/18 
f 43/3/18 44/4/18 41/4/18 
f 45/1/19 41/4/19 44/4/19 
f 44/4/19 46/1/19 45/1/19 
f 47/2/20 45/1/20 46/1/20 
f 46/1/20 48/2/20 47/2/20 
f 42/3/21 47/2/21 48/2/21 
f 48/2/21 43/3/21 42/3/21 
f 49/26/22 50/27/22 42/28/22 
f 42/28/22 41/29/22 49/26/22 
f 51/30/23 49/31/23 41/32/23 
f 41/32/23 45/33/23 51/30/23 
f 52/27/24 51/26/24 45/29/24 
f 45/29/24 47/28/24 52/27/24 
f 50/31/25 52/30/25 47/33/25 
f 47/33/25 42/32/25 50/31/25 
f 53/4/26 54/3/26 50/3/26 
f 50/3/26 49/4/26 53/4/26 
f 55/1/27 53/4/27 49/4/27 
f 49/4/27 51/1/27 55/1/27 
f 56/2/28 55/1/28 51/1/28 
f 51/1/28 52/2/28 56/2/28 
f 54/3/29 56/2/29 52/2/29 
f 52/2/29 50/3/29 54/3/29 
f 4/34/2 3/35/2 54/36/2 
f 54/36/2 53/37/2 4/34/2 
f 1/38/3 4/39/3 53/40/3 
f 53/40/3 55/41/3 1/38/3 
f 2/35/4 1/34/4 55/37/4 
f 55/37/4 56/36/4 2/35/4 
f 3/39/5 2/38/5 56/41/5 
f 56/41/5 54/40/5 3/39/5 
f 22/42/2 21/43/2 57/44/2 
f 57/44/2 58/45/2 22/42/2 
f 21/43/2 44/46/2 59/47/2 
f 59/47/2 57/44/2 21/43/2 
f 44/46/2 43/48/2 60/49/2 
f 60/49/2 59/47/2 44/46/2 
f 43/48/2 22/42/2 58/45/2 
f 58/45/2 60/49/2 43/48/2 
f 21/50/3 23/51/3 61/52/3 
f 61/52/3 62/53/3 21/50/3 
f 23/51/3 46/54/3 63/55/3 
f 63/55/3 61/52/3 23/51/3 
f 46/54/3 44/56/3 64/57/3 
f 64/57/3 63/55/3 46/54/3 
f 44/56/3 21/50/3 62/53/3 
f 62/53/3 64/57/3 44/56/3 
f 23/43/4 24/42/4 65/45/4 
f 65/45/4 66/44/4 23/43/4 
f 24/42/4 48/48/4 67/49/4 
f 67/49/4 65/45/4 24/42/4 
f 48/48/4 46/46/4 68/47/4 
f 68/47/4 67/49/4 48/48/4 
f 46/46/4 23/43/4 66/44/4 
f 66/44/4 68/47/4 46/46/4 
f 24/51/5 22/50/5 69/53/5 
f 69/53/5 70/52/5 24/51/5 
f 22/50/5 43/56/5 71/57/5 
f 71/57/5 69/53/5 22/50/5 
f 43/56/5 48/54/5 72/55/5 
f 72/55/5 71/57/5 43/56/5 
f 48/54/5 24/51/5 70/52/5 
f 70/52/5 72/55/5 48/54/5 
f 58/3/1 57/4/1 73/4/1 
f 73/4/1 74/3/1 58/3/1 
f 57/4/5 59/4/5 75/4/5 
f 75/4/5 73/4/5 57/4/5 
f 59/4/30 60/3/30 76/3/30 
f 76/3/30 75/4/30 59/4/30 
f 60/3/3 58/3/3 74/3/3 
f 74/3/3 76/3/3 60/3/3 
f 62/4/1 61/1/1 77/1/1 
f 77/1/1 78/4/1 62/4/1 
f 61/1/2 63/1/2 79/1/2 
f 79/1/2 77/1/2 61/1/2 
f 63/1/30 64/4/30 80/4/30 
f 80/4/30 79/1/30 63/1/30 
f 64/4/4 62/4/4 78/4/4 
f 78/4/4 80/4/4 64/4/4 
f 66/1/1 65/2/1 81/2/1 
f 81/2/1 82/1/1 66/1/1 
f 65/2/3 67/2/3 83/2/3 
f 83/2/3 81/2/3 65/2/3 
f 67/2/30 68/1/30 84/1/30 
f 84/1/30 83/2/30 67/2/30 
f 68/1/5 66/1/5 82/1/5 
f 82/1/5 84/1/5 68/1/5 
f 70/2/1 69/3/1 85/3/1 
f 85/3/1 86/2/1 70/2/1 
f 69/3/4 71/3/4 87/3/4 
f 87/3/4 85/3/4 69/3/4 
f 71/3/30 72/2/30 88/2/30 
f 88/2/30 87/3/30 71/3/30 
f 72/2/2 70/2/2 86/2/2 
f 86/2/2 88/2/2 72/2/2 
f 74/45/2 73/44/2 89/21/2 
f 89/21/2 90/20/2 74/45/2 
f 73/44/2 75/47/2 91/18/2 
f 91/18/2 89/21/2 73/44/2 
f 75/47/2 76/49/2 92/19/2 
f 92/19/2 91/18/2 75/47/2 
f 76/49/2 74/45/2 90/20/2 
f 90/20/2 92/19/2 76/49/2 
f 78/53/3 77/52/3 93/25/3 
f 93/25/3 94/24/3 78/53/3 
f 77/52/3 79/55/3 95/22/3 
f 95/22/3 93/25/3 77/52/3 
f 79/55/3 80/57/3 96/23/3 
f 96/23/3 95/22/3 79/55/3 
f 80/57/3 78/53/3 94/24/3 
f 94/24/3 96/23/3 80/57/3 
f 82/44/4 81/45/4 97/20/4 
f 97/20/4 98/21/4 82/44/4 
f 81/45/4 83/49/4 99/19/4 
f 99/19/4 97/20/4 81/45/4 
f 83/49/4 84/47/4 100/18/4 
f 100/18/4 99/19/4 83/49/4 
f 84/47/4 82/44/4 98/21/4 
f 98/21/4 100/18/4 84/47/4 
f 86/52/5 85/53/5 101/24/5 
f 101/24/5 102/25/5 86/52/5 
f 85/53/5 87/57/5 103/23/5 
f 103/23/5 101/24/5 85/53/5 
f 87/57/5 88/55/5 104/22/5 
f 104/22/5 103/23/5 87/57/5 
f 88/55/5 86/52/5 102/25/5 
f 102/25/5 104/22/5 88/55/5 
f 90/3/1 89/4/1 28/4/1 
f 28/4/1 27/3/1 90/3/1 
f 89/4/5 91/4/5 25/4/5 
f 25/4/5 28/4/5 89/4/5 
f 91/4/30 92/3/30 26/3/30 
f 26/3/30 25/4/30 91/4/30 
f 92/3/3 90/3/3 27/3/3 
f 27/3/3 26/3/3 92/3/3 
f 94/4/1 93/1/1 32/1/1 
f 32/1/1 31/4/1 94/4/1 
f 93/1/2 95/1/2 29/1/2 
f 29/1/2 32/1/2 93/1/2 
f 95/1/30 96/4/30 30/4/30 
f 30/4/30 29/1/30 95/1/30 
f 96/4/4 94/4/4 31/4/4 
f 31/4/4 30/4/4 96/4/4 
f 98/1/1 97/2/1 36/2/1 
f 36/2/1 35/1/1 98/1/1 
f 97/2/3 99/2/3 33/2/3 
f 33/2/3 36/2/3 97/2/3 
f 99/2/30 100/1/30 34/1/30 
f 34/1/30 33/2/30 99/2/30 
f 100/1/5 98/1/5 35/1/5 
f 35/1/5 34/1/5 100/1/5 
f 102/2/1 101/3/1 40/3/1 
f 40/3/1 39/2/1 102/2/1 
f 101/3/4 103/3/4 37/3/4 
f 37/3/4 40/3/4 101/3/4 
f 103/3/30 104/2/30 38/2/30 
f 38/2/30 37/3/30 103/3/30 
f 104/2/2 102/2/2 39/2/2 
f 39/2/2 38/2/2 104/2/2 
# 202 faces

