# 3ds Max Wavefront OBJ Exporter v0.97b - (c)2007 guruware
# File Created: 07.05.2018 08:59:26

#
# object floor01
#

v  -17.3085 0.2133 1.4366
v  -19.1138 0.2687 4.1395
v  -15.5032 0.4176 4.1395
v  -20.9192 0.3054 2.7881
v  -10.0871 0.2417 1.4366
v  -11.8925 0.2201 4.1395
v  -8.2818 0.3176 4.1395
v  -13.6978 0.1871 2.7881
v  -2.8658 0.3225 1.4366
v  -4.6711 0.3047 4.1395
v  -1.0604 0.3539 4.1395
v  -6.4765 0.3061 2.7881
v  4.3556 0.2971 1.4366
v  2.5502 0.3194 4.1395
v  6.1609 0.4551 4.1395
v  0.7449 0.3170 2.7881
v  -13.6978 0.0684 0.0852
v  -20.9192 0.3425 0.0852
v  -6.4765 0.2905 0.0852
v  0.7449 0.3095 0.0852
v  7.9663 0.3066 2.7881
v  7.9663 0.2331 0.0852
v  -13.6978 0.4424 -5.3206
v  -15.5032 0.2378 -1.9420
v  -13.6978 0.2301 -2.6177
v  -19.1138 0.1876 -1.9420
v  -6.4765 0.2323 -5.3206
v  -8.2818 0.3010 -1.9420
v  -6.4765 0.2734 -2.6177
v  -11.8925 0.2116 -1.9420
v  0.7449 0.3712 -5.3206
v  -1.0604 0.4140 -1.9420
v  0.7449 0.4044 -2.6177
v  -4.6711 0.2825 -1.9420
v  7.9663 0.2937 -5.3206
v  6.1609 0.1780 -1.9420
v  7.9663 0.2844 -2.6177
v  2.5502 0.2391 -1.9420
v  -17.3085 0.3177 -3.9691
v  -20.9192 0.2585 -5.3206
v  -20.9192 0.2617 -2.6177
v  -10.0871 0.2973 -3.9691
v  -2.8658 0.3002 -3.9691
v  4.3556 0.2252 -3.9691
v  4.3556 0.2833 -5.3206
v  -2.8658 0.2627 -5.3206
v  -10.0871 0.3482 -5.3206
v  -17.3085 0.3767 -5.3206
v  0.7449 0.3477 5.4909
v  4.3556 0.4544 5.4909
v  -6.4765 0.3434 5.4909
v  -2.8658 0.3514 5.4909
v  -13.6978 0.4297 5.4909
v  -10.0871 0.2028 5.4909
v  -20.9192 0.2289 5.4909
v  -17.3085 0.4103 5.4909
v  7.9663 0.4835 5.4909
# 57 vertices

vn 0.0151 0.9996 -0.0233
vn -0.0199 0.9996 -0.0190
vn 0.0114 0.9983 -0.0571
vn 0.0192 0.9997 0.0122
vn -0.0243 0.9997 -0.0054
vn 0.0176 0.9992 -0.0365
vn -0.0217 0.9998 0.0051
vn 0.0195 0.9980 -0.0608
vn -0.0069 1.0000 0.0017
vn -0.0026 0.9999 -0.0131
vn 0.0011 1.0000 -0.0075
vn -0.0053 0.9999 -0.0090
vn 0.0019 0.9996 -0.0283
vn -0.0162 0.9994 -0.0319
vn 0.0009 0.9990 -0.0449
vn 0.0059 0.9999 -0.0081
vn -0.0003 1.0000 0.0077
vn 0.0424 0.9990 -0.0144
vn -0.0058 1.0000 -0.0029
vn 0.0182 0.9998 0.0094
vn 0.0209 0.9983 -0.0538
vn -0.0069 0.9998 -0.0184
vn 0.0039 0.9982 0.0592
vn 0.0122 0.9989 0.0445
vn 0.0072 0.9974 0.0711
vn 0.0140 0.9999 0.0018
vn 0.0035 1.0000 -0.0081
vn -0.0032 1.0000 0.0004
vn 0.0051 0.9999 -0.0118
vn -0.0194 0.9990 0.0393
vn 0.0149 0.9999 -0.0037
vn -0.0101 0.9999 0.0048
vn 0.0483 0.9988 0.0060
vn -0.0159 0.9998 -0.0077
vn -0.0222 0.9994 0.0247
vn -0.0117 0.9999 0.0002
vn -0.0553 0.9984 0.0094
vn 0.0398 0.9992 0.0015
vn -0.0217 0.9987 0.0460
vn -0.0084 0.9996 0.0267
vn 0.0456 0.9989 -0.0123
vn 0.0115 0.9995 0.0278
vn -0.0248 0.9994 -0.0229
vn 0.0127 0.9995 0.0284
vn 0.0107 0.9990 0.0430
vn -0.0192 0.9994 -0.0277
vn 0.0291 0.9989 0.0376
vn -0.0254 0.9987 0.0436
vn -0.0002 0.9998 -0.0184
vn -0.0299 0.9986 -0.0437
vn -0.0063 0.9999 -0.0079
vn -0.0083 0.9998 -0.0155
vn 0.0439 0.9967 -0.0677
vn -0.0111 0.9997 0.0210
vn -0.0210 0.9998 0.0013
vn -0.0357 0.9987 -0.0374
vn 0.0163 0.9990 -0.0428
# 57 vertex normals

vt 0.1250 0.3750 0.0000
vt 0.0625 0.1250 0.0000
vt 0.1875 0.1250 0.0000
vt 0.0000 0.2500 0.0000
vt 0.3750 0.3750 0.0000
vt 0.3125 0.1250 0.0000
vt 0.4375 0.1250 0.0000
vt 0.2500 0.2500 0.0000
vt 0.6250 0.3750 0.0000
vt 0.5625 0.1250 0.0000
vt 0.6875 0.1250 0.0000
vt 0.5000 0.2500 0.0000
vt 0.8750 0.3750 0.0000
vt 0.8125 0.1250 0.0000
vt 0.9375 0.1250 0.0000
vt 0.7500 0.2500 0.0000
vt 0.2500 0.5000 0.0000
vt 0.0000 0.5000 0.0000
vt 0.5000 0.5000 0.0000
vt 0.7500 0.5000 0.0000
vt 1.0000 0.2500 0.0000
vt 1.0000 0.5000 0.0000
vt 0.2500 1.0000 0.0000
vt 0.1875 0.6875 0.0000
vt 0.2500 0.7500 0.0000
vt 0.0625 0.6875 0.0000
vt 0.5000 1.0000 0.0000
vt 0.4375 0.6875 0.0000
vt 0.5000 0.7500 0.0000
vt 0.3125 0.6875 0.0000
vt 0.7500 1.0000 0.0000
vt 0.6875 0.6875 0.0000
vt 0.7500 0.7500 0.0000
vt 0.5625 0.6875 0.0000
vt 1.0000 1.0000 0.0000
vt 0.9375 0.6875 0.0000
vt 1.0000 0.7500 0.0000
vt 0.8125 0.6875 0.0000
vt 0.1250 0.8750 0.0000
vt 0.0000 1.0000 0.0000
vt 0.0000 0.7500 0.0000
vt 0.3750 0.8750 0.0000
vt 0.6250 0.8750 0.0000
vt 0.8750 0.8750 0.0000
vt 0.8750 1.0000 0.0000
vt 0.6250 1.0000 0.0000
vt 0.3750 1.0000 0.0000
vt 0.1250 1.0000 0.0000
vt 0.7500 0.0000 0.0000
vt 0.8750 0.0000 0.0000
vt 0.5000 0.0000 0.0000
vt 0.6250 0.0000 0.0000
vt 0.2500 0.0000 0.0000
vt 0.3750 0.0000 0.0000
vt 0.0000 0.0000 0.0000
vt 0.1250 0.0000 0.0000
vt 1.0000 0.0000 0.0000
# 57 texture coords

g floor01
f 1/1/1 2/2/2 3/3/3 
f 2/2/2 1/1/1 4/4/4 
f 5/5/5 6/6/6 7/7/7 
f 6/6/6 5/5/5 8/8/8 
f 9/9/9 10/10/10 11/11/11 
f 10/10/10 9/9/9 12/12/12 
f 13/13/13 14/14/14 15/15/15 
f 14/14/14 13/13/13 16/16/16 
f 1/1/1 8/8/8 17/17/17 
f 1/1/1 18/18/18 4/4/4 
f 5/5/5 12/12/12 19/19/19 
f 5/5/5 17/17/17 8/8/8 
f 9/9/9 16/16/16 20/20/20 
f 9/9/9 19/19/19 12/12/12 
f 13/13/13 21/21/21 22/22/22 
f 13/13/13 20/20/20 16/16/16 
f 23/23/23 24/24/24 25/25/25 
f 1/1/1 24/24/24 26/26/26 
f 27/27/27 28/28/28 29/29/29 
f 5/5/5 28/28/28 30/30/30 
f 31/31/31 32/32/32 33/33/33 
f 9/9/9 32/32/32 34/34/34 
f 35/35/35 36/36/36 37/37/37 
f 13/13/13 36/36/36 38/38/38 
f 39/39/39 24/24/24 23/23/23 
f 26/26/26 40/40/40 41/41/41 
f 42/42/42 28/28/28 27/27/27 
f 30/30/30 23/23/23 25/25/25 
f 43/43/43 32/32/32 31/31/31 
f 34/34/34 27/27/27 29/29/29 
f 44/44/44 36/36/36 35/35/35 
f 38/38/38 31/31/31 33/33/33 
f 33/33/33 20/20/20 38/38/38 
f 35/35/35 45/45/45 44/44/44 
f 29/29/29 19/19/19 34/34/34 
f 31/31/31 46/46/46 43/43/43 
f 25/25/25 17/17/17 30/30/30 
f 27/27/27 47/47/47 42/42/42 
f 41/41/41 18/18/18 26/26/26 
f 23/23/23 48/48/48 39/39/39 
f 14/14/14 49/49/49 50/50/50 
f 22/22/22 36/36/36 13/13/13 
f 10/10/10 51/51/51 52/52/52 
f 20/20/20 32/32/32 9/9/9 
f 6/6/6 53/53/53 54/54/54 
f 19/19/19 28/28/28 5/5/5 
f 2/2/2 55/55/55 56/56/56 
f 17/17/17 24/24/24 1/1/1 
f 45/45/45 31/31/31 44/44/44 
f 46/46/46 27/27/27 43/43/43 
f 47/47/47 23/23/23 42/42/42 
f 48/48/48 40/40/40 39/39/39 
f 57/57/57 21/21/21 15/15/15 
f 49/49/49 16/16/16 11/11/11 
f 51/51/51 12/12/12 7/7/7 
f 53/53/53 8/8/8 3/3/3 
f 13/13/13 38/38/38 20/20/20 
f 31/31/31 38/38/38 44/44/44 
f 36/36/36 44/44/44 38/38/38 
f 36/36/36 22/22/22 37/37/37 
f 9/9/9 34/34/34 19/19/19 
f 27/27/27 34/34/34 43/43/43 
f 32/32/32 43/43/43 34/34/34 
f 32/32/32 20/20/20 33/33/33 
f 5/5/5 30/30/30 17/17/17 
f 23/23/23 30/30/30 42/42/42 
f 28/28/28 42/42/42 30/30/30 
f 28/28/28 19/19/19 29/29/29 
f 1/1/1 26/26/26 18/18/18 
f 40/40/40 26/26/26 39/39/39 
f 24/24/24 39/39/39 26/26/26 
f 24/24/24 17/17/17 25/25/25 
f 16/16/16 49/49/49 14/14/14 
f 50/50/50 15/15/15 14/14/14 
f 13/13/13 15/15/15 21/21/21 
f 57/57/57 15/15/15 50/50/50 
f 12/12/12 51/51/51 10/10/10 
f 52/52/52 11/11/11 10/10/10 
f 9/9/9 11/11/11 16/16/16 
f 49/49/49 11/11/11 52/52/52 
f 8/8/8 53/53/53 6/6/6 
f 54/54/54 7/7/7 6/6/6 
f 5/5/5 7/7/7 12/12/12 
f 51/51/51 7/7/7 54/54/54 
f 4/4/4 55/55/55 2/2/2 
f 56/56/56 3/3/3 2/2/2 
f 1/1/1 3/3/3 8/8/8 
f 53/53/53 3/3/3 56/56/56 
# 88 faces

