# 3ds Max Wavefront OBJ Exporter v0.97b - (c)2007 guruware
# File Created: 07.05.2018 08:59:36

#
# object stairs
#

v  5.5309 2.3326 4.4596
v  6.6474 2.3668 3.9440
v  5.5309 2.3443 4.0048
v  6.6474 2.3615 4.4038
v  5.2494 1.8759 4.5668
v  6.6474 1.8669 4.3719
v  5.2923 2.2261 4.4651
v  5.2494 1.8911 2.9230
v  5.2494 2.2271 2.8386
v  5.2494 2.2621 2.0881
v  5.2494 1.8575 2.2444
v  5.5309 2.4296 2.7817
v  5.5925 2.4159 2.1787
v  6.6474 2.3565 2.7601
v  5.2219 2.2877 4.0344
v  5.2494 1.8759 4.1070
v  6.6474 2.3775 2.0815
v  4.3485 1.9191 4.5415
v  5.4650 1.9035 3.9480
v  4.3485 1.9125 4.0120
v  5.4650 1.9125 4.4078
v  4.0669 1.3819 4.4188
v  5.4650 1.4179 4.4207
v  4.1098 1.7628 4.5428
v  4.0669 1.4148 2.7751
v  4.0669 1.7599 2.8792
v  4.0669 1.8136 2.1196
v  4.0669 1.4089 2.0965
v  4.3485 1.9749 2.7737
v  4.4100 1.9546 2.1049
v  5.4650 1.9058 2.7640
v  4.0394 1.8221 3.9579
v  4.0669 1.4172 3.9590
v  5.4650 1.9213 2.0854
v  3.0581 1.4110 4.4117
v  4.1746 1.4201 4.0167
v  3.0581 1.4054 4.1237
v  4.1746 1.3824 4.4765
v  2.7765 0.9301 4.5455
v  4.1746 0.8878 4.3941
v  2.8195 1.2731 4.5136
v  2.7765 0.9324 2.9017
v  2.7765 1.2662 2.8049
v  2.7765 1.3261 2.1554
v  2.7765 0.9214 2.2231
v  3.0581 1.4750 2.8406
v  3.1196 1.4606 2.1116
v  4.1746 1.4074 2.8328
v  2.7491 1.3238 3.9003
v  2.7765 0.9217 4.0857
v  4.1746 1.3902 2.1542
v  1.9381 0.8592 4.5119
v  3.0546 0.9947 4.0047
v  1.9381 0.9163 4.0536
v  3.0546 0.9604 4.4645
v  1.6565 0.4773 4.5046
v  3.0546 0.4658 4.4607
v  1.6995 0.8320 4.4600
v  1.6565 0.4655 2.8608
v  1.6050 0.6535 2.5956
v  1.6565 0.6208 2.1230
v  1.6565 0.4585 2.1822
v  1.9381 0.8641 2.7096
v  1.9996 0.8576 2.1176
v  3.0546 0.9861 2.8208
v  1.7310 0.8551 4.0380
v  1.6565 0.4650 4.0448
v  3.0546 0.9782 2.1422
v  0.8859 0.4317 4.3268
v  1.8670 0.4800 4.0609
v  0.8296 0.3715 3.9711
v  1.8670 0.5289 4.5207
v  0.4689 0.0343 4.4494
v  1.8670 0.0343 4.4724
v  0.5784 0.2483 4.4495
v  0.4689 -0.0103 2.8056
v  0.4689 0.3573 2.6921
v  0.4731 0.1989 2.0938
v  0.4689 -0.0107 2.1270
v  0.7505 0.4544 2.6721
v  0.7492 0.4571 2.1108
v  1.8670 0.5114 2.8769
v  0.5331 0.2413 4.0158
v  0.4689 0.0160 3.9896
v  1.8670 0.5079 2.1983
# 85 vertices

vn -0.0204 0.9995 0.0221
vn -0.0221 0.9998 0.0027
vn 0.0006 0.9996 0.0273
vn -0.0253 0.9996 0.0115
vn 0.1349 0.2611 0.9558
vn 0.0659 -0.0102 0.9978
vn 0.1098 0.1596 0.9811
vn -1.0000 0.0000 -0.0000
vn -1.0000 -0.0069 -0.0019
vn -0.5784 0.8149 0.0380
vn -0.3947 0.9168 -0.0611
vn 0.0515 -0.0643 0.9966
vn 0.0515 -0.0642 0.9966
vn 0.0368 0.9990 0.0240
vn 0.0659 0.9974 0.0287
vn -0.9944 0.0522 0.0917
vn -0.9680 0.1718 0.1828
vn -0.9994 -0.0262 0.0217
vn -0.9980 -0.0623 -0.0070
vn -0.4070 0.9131 0.0234
vn -0.1622 0.9728 0.1657
vn -0.1733 0.9825 0.0686
vn -0.5902 0.8054 -0.0544
vn 0.0563 0.9984 -0.0002
vn 0.0392 0.9988 0.0310
vn 0.0064 0.9999 -0.0142
vn 0.0065 1.0000 -0.0074
vn 0.0203 0.9998 0.0058
vn 0.0035 0.9998 -0.0196
vn 0.0067 -0.3102 0.9506
vn 0.0941 -0.0472 0.9944
vn 0.0289 -0.2309 0.9726
vn -1.0000 -0.0076 -0.0024
vn -0.5924 0.8037 0.0568
vn -0.3817 0.9221 -0.0631
vn 0.1190 0.0260 0.9926
vn 0.0747 -0.0731 0.9945
vn 0.0398 0.9991 0.0167
vn 0.0618 0.9980 0.0141
vn -0.9969 0.0183 0.0769
vn -0.9895 0.0704 0.1263
vn -0.9992 -0.0371 0.0158
vn -0.9981 -0.0612 -0.0111
vn -0.5479 0.8365 -0.0104
vn -0.2995 0.9449 0.1319
vn -0.2881 0.9564 0.0482
vn -0.6201 0.7822 -0.0609
vn 0.0514 0.9986 -0.0084
vn 0.0319 0.9992 0.0228
vn -0.0062 1.0000 0.0053
vn -0.0005 0.9997 0.0248
vn 0.0025 1.0000 -0.0006
vn 0.0208 0.9964 0.0816
vn 0.1097 0.0784 0.9909
vn -0.0069 -0.0681 0.9977
vn 0.1379 0.1832 0.9734
vn -1.0000 -0.0075 -0.0020
vn -0.6001 0.7966 0.0735
vn -0.3701 0.9277 -0.0495
vn -0.0614 -0.1641 0.9845
vn 0.1464 0.2805 0.9486
vn 0.0459 0.9989 0.0016
vn 0.0606 0.9979 0.0208
vn -0.9952 0.0590 0.0784
vn -0.9831 0.1346 0.1240
vn -0.9991 -0.0428 0.0061
vn -0.9979 -0.0650 -0.0051
vn -0.5058 0.8625 -0.0167
vn -0.3308 0.9366 0.1155
vn -0.2898 0.9557 0.0518
vn -0.5900 0.8054 -0.0572
vn 0.0629 0.9979 -0.0183
vn 0.0676 0.9974 -0.0253
vn -0.0699 0.9914 0.1111
vn -0.0757 0.9964 0.0383
vn -0.0754 0.9958 0.0528
vn -0.0869 0.9935 0.0741
vn 0.0321 0.1210 0.9921
vn 0.0320 -0.0132 0.9994
vn -0.0062 -0.0208 0.9998
vn -0.9654 -0.2607 -0.0107
vn -0.9513 -0.3036 -0.0533
vn -0.9964 -0.0830 -0.0175
vn -0.5028 0.8569 -0.1141
vn -0.5674 0.8206 -0.0681
vn 0.0431 -0.0077 0.9990
vn -0.1095 -0.4276 0.8973
vn -0.0996 0.9948 -0.0202
vn -0.1056 0.9940 -0.0301
vn -0.9882 0.1485 -0.0375
vn -0.9914 0.1115 -0.0680
vn -0.9850 0.1719 0.0132
vn -0.9853 0.1693 0.0248
vn -0.1386 0.9827 0.1226
vn -0.2854 0.9579 0.0312
vn -0.2806 0.9591 -0.0372
vn -0.5146 0.8542 -0.0744
vn -0.1087 0.9939 -0.0185
vn -0.1133 0.9935 -0.0116
vn -0.0868 0.9862 -0.1412
vn -0.0926 0.9945 -0.0487
vn -0.0879 0.9953 -0.0405
vn -0.0774 0.9914 -0.1054
vn -0.0165 0.0079 0.9998
vn -0.1322 0.0035 0.9912
vn 0.0071 0.1488 0.9888
vn -1.0000 0.0012 -0.0020
vn -0.9999 0.0156 0.0007
vn -0.9999 0.0128 -0.0021
vn -0.9998 0.0199 -0.0000
vn -0.3314 0.9115 -0.2437
vn -0.6832 0.7302 0.0051
vn -0.1839 -0.0956 0.9783
vn 0.0187 0.3843 0.9230
vn -0.0665 0.9974 0.0267
vn -0.0568 0.9979 0.0319
vn -0.9147 0.4004 0.0557
vn -0.8870 0.4537 0.0852
vn -0.9529 0.3002 0.0423
vn -0.9685 0.2474 0.0271
vn -0.5288 0.8466 -0.0597
vn -0.3985 0.9168 0.0268
vn -0.3903 0.9170 0.0823
vn -0.3180 0.9430 0.0981
vn -0.0495 0.9988 0.0015
vn -0.0450 0.9990 -0.0051
# 126 vertex normals

vt 0.0119 0.6549 0.0000
vt 0.0920 0.4903 0.0000
vt 0.0796 0.6562 0.0000
vt 0.0236 0.4890 0.0000
vt 0.8485 0.7945 0.0000
vt 0.6386 0.7959 0.0000
vt 0.8401 0.7406 0.0000
vt 0.6436 0.5479 0.0000
vt 0.6562 0.4980 0.0000
vt 0.7678 0.4928 0.0000
vt 0.7445 0.5529 0.0000
vt 0.3634 0.7041 0.0000
vt 0.2517 0.7019 0.0000
vt 0.2617 0.6596 0.0000
vt 0.3515 0.6524 0.0000
vt 0.6393 0.7261 0.0000
vt 0.8048 0.7264 0.0000
vt 0.2679 0.4939 0.0000
vt 0.3991 0.5502 0.0000
vt 0.4143 0.4981 0.0000
vt 0.4783 0.4890 0.0000
vt 0.4675 0.5502 0.0000
vt 0.0100 0.6906 0.0000
vt 0.0741 0.7022 0.0000
vt 0.3689 0.4959 0.0000
vt 0.3865 0.1761 0.0000
vt 0.4748 0.0100 0.0000
vt 0.4653 0.1761 0.0000
vt 0.4064 0.0100 0.0000
vt 0.9900 0.0917 0.0000
vt 0.7821 0.0861 0.0000
vt 0.9837 0.0321 0.0000
vt 0.6652 0.3150 0.0000
vt 0.6497 0.2637 0.0000
vt 0.7627 0.2557 0.0000
vt 0.7661 0.3159 0.0000
vt 0.7468 0.2179 0.0000
vt 0.6338 0.2179 0.0000
vt 0.6495 0.1761 0.0000
vt 0.7489 0.1669 0.0000
vt 0.7821 0.0167 0.0000
vt 0.9483 0.0100 0.0000
vt 0.6509 0.0100 0.0000
vt 0.4207 0.3199 0.0000
vt 0.4022 0.2632 0.0000
vt 0.4892 0.2544 0.0000
vt 0.4891 0.3146 0.0000
vt 0.3863 0.2116 0.0000
vt 0.4733 0.2220 0.0000
vt 0.7518 0.0100 0.0000
vt 0.0246 0.9020 0.0000
vt 0.0825 0.7356 0.0000
vt 0.0674 0.9018 0.0000
vt 0.0142 0.7361 0.0000
vt 0.6084 0.8003 0.0000
vt 0.3991 0.7984 0.0000
vt 0.6035 0.7489 0.0000
vt 0.6467 0.4011 0.0000
vt 0.6611 0.3515 0.0000
vt 0.7577 0.3426 0.0000
vt 0.7477 0.4028 0.0000
vt 0.3606 0.9423 0.0000
vt 0.2641 0.9430 0.0000
vt 0.2580 0.9007 0.0000
vt 0.3664 0.8910 0.0000
vt 0.4033 0.7261 0.0000
vt 0.5674 0.7261 0.0000
vt 0.2586 0.7348 0.0000
vt 0.4022 0.4015 0.0000
vt 0.4070 0.3505 0.0000
vt 0.4982 0.3429 0.0000
vt 0.4706 0.4027 0.0000
vt 0.0100 0.9379 0.0000
vt 0.1011 0.9478 0.0000
vt 0.3595 0.7343 0.0000
vt 0.3623 0.0465 0.0000
vt 0.2953 0.2173 0.0000
vt 0.2938 0.0507 0.0000
vt 0.3637 0.2133 0.0000
vt 0.6072 0.9017 0.0000
vt 0.3991 0.9035 0.0000
vt 0.6006 0.8486 0.0000
vt 0.6428 0.6978 0.0000
vt 0.6815 0.6678 0.0000
vt 0.7522 0.6731 0.0000
vt 0.7434 0.6958 0.0000
vt 0.0119 0.0210 0.0000
vt 0.0805 0.0100 0.0000
vt 0.0966 0.0607 0.0000
vt 0.0100 0.0744 0.0000
vt 0.3991 0.8305 0.0000
vt 0.5653 0.8457 0.0000
vt 0.1209 0.2265 0.0000
vt 0.3991 0.7034 0.0000
vt 0.4063 0.6564 0.0000
vt 0.4692 0.6530 0.0000
vt 0.4673 0.7031 0.0000
vt 0.3530 0.0112 0.0000
vt 0.2906 0.0195 0.0000
vt 0.0211 0.2318 0.0000
vt 0.3450 0.3074 0.0000
vt 0.3109 0.4548 0.0000
vt 0.2911 0.3004 0.0000
vt 0.3796 0.4527 0.0000
vt 0.9900 0.1879 0.0000
vt 0.7821 0.1879 0.0000
vt 0.9737 0.1561 0.0000
vt 0.6436 0.6303 0.0000
vt 0.6605 0.5756 0.0000
vt 0.7495 0.5992 0.0000
vt 0.7445 0.6303 0.0000
vt 0.0100 0.2566 0.0000
vt 0.1015 0.2544 0.0000
vt 0.1019 0.2975 0.0000
vt 0.0196 0.3007 0.0000
vt 0.7821 0.1144 0.0000
vt 0.9280 0.1288 0.0000
vt 0.1377 0.4623 0.0000
vt 0.3991 0.6236 0.0000
vt 0.3992 0.5919 0.0000
vt 0.4637 0.5929 0.0000
vt 0.4675 0.6264 0.0000
vt 0.3576 0.2588 0.0000
vt 0.2935 0.2546 0.0000
vt 0.0380 0.4663 0.0000
# 125 texture coords

g stairs
f 1/1/1 2/2/2 3/3/3 
f 2/2/2 1/1/1 4/4/4 
f 5/5/5 6/6/6 7/7/7 
f 8/8/8 9/9/9 10/10/8 
f 10/10/8 11/11/8 8/8/8 
f 10/12/10 9/13/10 12/14/10 
f 12/14/11 13/15/11 10/12/11 
f 6/6/6 4/16/12 1/17/13 
f 1/17/13 7/7/7 6/6/6 
f 14/18/14 12/14/15 3/3/3 
f 3/3/3 2/2/2 14/18/14 
f 5/19/16 7/20/17 15/21/18 
f 15/21/18 16/22/19 5/19/16 
f 7/23/20 1/1/20 3/3/20 
f 3/3/21 15/24/21 7/23/21 
f 16/22/19 15/21/18 9/9/9 
f 9/9/9 8/8/8 16/22/19 
f 15/24/22 3/3/22 12/14/22 
f 12/14/23 9/13/23 15/24/23 
f 14/18/14 13/15/24 12/14/15 
f 13/15/24 14/18/14 17/25/25 
f 18/26/26 19/27/27 20/28/28 
f 19/27/27 18/26/26 21/29/29 
f 22/30/30 23/31/31 24/32/32 
f 25/33/8 26/34/33 27/35/8 
f 27/35/8 28/36/8 25/33/8 
f 27/37/34 26/38/34 29/39/34 
f 29/39/35 30/40/35 27/37/35 
f 23/31/31 21/41/36 18/42/37 
f 18/42/37 24/32/32 23/31/31 
f 31/43/38 29/39/39 20/28/28 
f 20/28/28 19/27/27 31/43/38 
f 22/44/40 24/45/41 32/46/42 
f 32/46/42 33/47/43 22/44/40 
f 24/48/44 18/26/44 20/28/44 
f 20/28/45 32/49/45 24/48/45 
f 33/47/43 32/46/42 26/34/33 
f 26/34/33 25/33/8 33/47/43 
f 32/49/46 20/28/46 29/39/46 
f 29/39/47 26/38/47 32/49/47 
f 31/43/38 30/40/48 29/39/39 
f 30/40/48 31/43/38 34/50/49 
f 35/51/50 36/52/51 37/53/52 
f 36/52/51 35/51/50 38/54/53 
f 39/55/54 40/56/55 41/57/56 
f 42/58/8 43/59/57 44/60/8 
f 44/60/8 45/61/8 42/58/8 
f 44/62/58 43/63/58 46/64/58 
f 46/64/59 47/65/59 44/62/59 
f 40/56/55 38/66/60 35/67/61 
f 35/67/61 41/57/56 40/56/55 
f 48/68/62 46/64/63 37/53/52 
f 37/53/52 36/52/51 48/68/62 
f 39/69/64 41/70/65 49/71/66 
f 49/71/66 50/72/67 39/69/64 
f 41/73/68 35/51/68 37/53/68 
f 37/53/69 49/74/69 41/73/69 
f 50/72/67 49/71/66 43/59/57 
f 43/59/57 42/58/8 50/72/67 
f 49/74/70 37/53/70 46/64/70 
f 46/64/71 43/63/71 49/74/71 
f 48/68/62 47/65/72 46/64/63 
f 47/65/72 48/68/62 51/75/73 
f 52/76/74 53/77/75 54/78/76 
f 53/77/75 52/76/74 55/79/77 
f 56/80/78 57/81/79 58/82/80 
f 59/83/81 60/84/82 61/85/83 
f 61/85/83 62/86/8 59/83/81 
f 61/87/84 60/88/84 63/89/84 
f 63/89/85 64/90/85 61/87/85 
f 57/81/79 55/91/86 52/92/87 
f 52/92/87 58/82/80 57/81/79 
f 65/93/88 63/89/89 54/78/76 
f 54/78/76 53/77/75 65/93/88 
f 56/94/90 58/95/91 66/96/92 
f 66/96/92 67/97/93 56/94/90 
f 58/98/94 52/76/94 54/78/94 
f 54/78/95 66/99/95 58/98/95 
f 67/97/93 66/96/92 60/84/82 
f 60/84/82 59/83/81 67/97/93 
f 66/99/96 54/78/96 63/89/96 
f 63/89/97 60/88/97 66/99/97 
f 65/93/88 64/90/98 63/89/89 
f 64/90/98 65/93/88 68/100/99 
f 69/101/100 70/102/101 71/103/102 
f 70/102/101 69/101/100 72/104/103 
f 73/105/104 74/106/105 75/107/106 
f 76/108/107 77/109/108 78/110/109 
f 78/110/109 79/111/110 76/108/107 
f 78/112/111 77/113/111 80/114/111 
f 80/114/112 81/115/112 78/112/112 
f 74/106/105 72/116/113 69/117/114 
f 69/117/114 75/107/106 74/106/105 
f 82/118/115 80/114/116 71/103/102 
f 71/103/102 70/102/101 82/118/115 
f 73/119/117 75/120/118 83/121/119 
f 83/121/119 84/122/120 73/119/117 
f 75/123/121 69/101/121 71/103/121 
f 71/103/122 83/124/122 75/123/122 
f 84/122/120 83/121/119 77/109/108 
f 77/109/108 76/108/107 84/122/120 
f 83/124/123 71/103/123 80/114/123 
f 80/114/124 77/113/124 83/124/124 
f 82/118/115 81/115/125 80/114/116 
f 81/115/125 82/118/115 85/125/126 
# 105 faces

