# 3ds Max Wavefront OBJ Exporter v0.97b - (c)2007 guruware
# File Created: 06.01.2018 13:50:32

#
# object 8
#

v  -0.0329 -0.0474 0.0017
v  0.0318 -0.0257 0.0025
v  0.0319 -0.0473 0.0023
v  -0.0330 -0.0258 0.0019
v  -0.0332 0.0389 0.0068
v  -0.0331 0.0173 0.0023
v  -0.0329 -0.0475 0.0060
v  -0.0331 0.0389 0.0025
v  -0.0328 -0.0257 -0.0111
v  -0.0329 0.0175 -0.0107
v  0.0316 0.0391 0.0075
v  0.0316 0.0391 0.0031
v  0.0318 -0.0473 0.0067
v  0.0317 0.0175 0.0029
v  0.0318 0.0176 -0.0100
v  0.0320 -0.0256 -0.0104
v  -0.0394 0.0261 -0.0107
v  -0.0393 -0.0344 -0.0112
v  -0.0265 0.0391 -0.0104
v  0.0253 0.0392 -0.0099
v  -0.0263 -0.0473 -0.0112
v  0.0255 -0.0472 -0.0107
v  0.0385 -0.0342 -0.0104
v  0.0383 0.0263 -0.0099
v  -0.0383 -0.0335 -0.1062
v  -0.0385 0.0270 -0.1057
v  -0.0256 0.0400 -0.1054
v  0.0263 0.0401 -0.1049
v  0.0392 0.0272 -0.1049
v  0.0394 -0.0333 -0.1054
v  0.0265 -0.0463 -0.1057
v  -0.0253 -0.0464 -0.1062
v  -0.0104 0.0076 -0.1056
v  -0.0103 -0.0140 -0.1058
v  0.0113 -0.0139 -0.1056
v  0.0112 0.0077 -0.1053
v  -0.0103 -0.0140 -0.1014
v  -0.0104 0.0076 -0.1012
v  0.0112 -0.0140 -0.1012
v  0.0112 0.0076 -0.1010
v  -0.0102 -0.0325 -0.1159
v  -0.0103 0.0263 -0.1154
v  -0.0103 -0.0226 -0.1058
v  -0.0104 0.0162 -0.1055
v  0.0270 -0.0225 -0.1055
v  0.0269 0.0163 -0.1051
v  -0.0067 -0.0350 -0.1668
v  -0.0193 0.0306 -0.2635
v  -0.0069 0.0298 -0.1662
v  -0.0192 -0.0341 -0.2641
v  0.0166 -0.0352 -0.1367
v  0.0164 0.0296 -0.1361
v  0.0225 0.0294 -0.1180
v  0.0227 -0.0354 -0.1186
v  -0.0125 -0.0355 -0.1189
v  -0.0126 0.0293 -0.1183
v  -0.0406 -0.0352 -0.1595
v  -0.0408 0.0296 -0.1589
v  -0.0396 -0.0342 -0.2643
v  -0.0397 0.0306 -0.2637
v  -0.0334 -0.0342 -0.2664
v  -0.0336 0.0306 -0.2658
# 62 vertices

vn -0.5699 -0.5735 -0.5885
vn 0.9084 -0.2963 -0.2951
vn 0.5847 -0.5704 -0.5769
vn -0.9006 -0.3011 -0.3134
vn -0.5847 0.5704 0.5768
vn -0.9023 0.3019 -0.3078
vn -0.5815 -0.5842 0.5661
vn -0.5731 0.5812 -0.5778
vn -0.3098 -0.3107 0.8986
vn -0.3115 0.2923 0.9042
vn 0.5699 0.5735 0.5885
vn 0.5816 0.5842 -0.5661
vn 0.5731 -0.5812 0.5777
vn 0.9067 0.3067 -0.2896
vn 0.2915 0.2939 0.9103
vn 0.2932 -0.3091 0.9047
vn -0.7244 0.2893 0.6257
vn -0.7228 -0.3049 0.6202
vn -0.3054 0.7106 0.6339
vn 0.2888 0.7122 0.6399
vn -0.3015 -0.7239 0.6205
vn 0.2927 -0.7223 0.6266
vn 0.7117 -0.3011 0.6347
vn 0.7101 0.2931 0.6402
vn -0.7101 -0.2931 -0.6402
vn -0.7117 0.3011 -0.6347
vn -0.2927 0.7223 -0.6266
vn 0.3015 0.7239 -0.6206
vn 0.7228 0.3049 -0.6202
vn 0.7244 -0.2893 -0.6257
vn 0.3054 -0.7106 -0.6338
vn -0.2888 -0.7122 -0.6399
vn 0.3114 -0.2923 -0.9042
vn 0.3098 0.3107 -0.8986
vn -0.2932 0.3091 -0.9047
vn -0.2916 -0.2939 -0.9103
vn -0.4787 -0.4886 0.7294
vn -0.9067 -0.3067 0.2895
vn -0.4814 0.4724 0.7383
vn -0.6366 -0.3054 0.7081
vn -0.9083 0.2963 0.2952
vn -0.6383 0.2888 0.7136
vn -0.5847 0.5704 0.5769
vn -0.5816 -0.5842 0.5661
vn 0.2916 0.2939 0.9103
vn 0.5731 -0.5812 0.5778
vn 0.7374 -0.3210 0.5943
vn 0.7356 0.3140 0.6002
vn 0.5900 -0.7674 -0.2508
vn 0.5763 0.6006 -0.5542
vn 0.5858 0.7752 -0.2365
vn 0.5795 -0.5871 -0.5652
vn 0.6550 -0.6664 -0.3561
vn 0.6513 0.6765 -0.3437
vn 0.6561 0.7376 0.1593
vn 0.6602 -0.7368 0.1456
vn -0.4790 -0.7079 0.5191
vn -0.4829 0.6955 0.5321
vn -0.7289 -0.6488 0.2188
vn -0.7324 0.6406 0.2308
vn -0.6475 -0.5944 -0.4770
vn -0.6507 0.5996 -0.4659
vn -0.0606 -0.6502 -0.7574
vn -0.0642 0.6637 -0.7452
# 64 vertex normals

vt 0.8053 0.2840 0.0000
vt 0.8584 0.4512 0.0000
vt 0.8015 0.4481 0.0000
vt 0.8622 0.2871 0.0000
vt 0.9761 0.2179 0.0000
vt 0.9655 0.1671 0.0000
vt 0.9779 0.0100 0.0000
vt 0.9650 0.2191 0.0000
vt 0.9664 0.0631 0.0000
vt 0.9669 0.0111 0.0000
vt 0.9331 0.0665 0.0000
vt 0.9322 0.1705 0.0000
vt 0.9779 0.7030 0.0000
vt 0.9701 0.5446 0.0000
vt 0.9813 0.5438 0.0000
vt 0.9667 0.7038 0.0000
vt 0.9324 0.4931 0.0000
vt 0.9209 0.4400 0.0000
vt 0.9309 0.2852 0.0000
vt 0.9213 0.4920 0.0000
vt 0.9202 0.3360 0.0000
vt 0.9198 0.2840 0.0000
vt 0.8869 0.3326 0.0000
vt 0.8877 0.4365 0.0000
vt 0.9682 0.4444 0.0000
vt 0.9599 0.2840 0.0000
vt 0.9710 0.2852 0.0000
vt 0.9571 0.4432 0.0000
vt 0.8269 0.9442 0.0000
vt 0.7738 0.7771 0.0000
vt 0.8307 0.7802 0.0000
vt 0.7699 0.9412 0.0000
vt 0.7708 0.5269 0.0000
vt 0.6216 0.2840 0.0000
vt 0.7850 0.2992 0.0000
vt 0.6074 0.5118 0.0000
vt 0.5138 0.9816 0.0000
vt 0.4837 0.8247 0.0000
vt 0.5172 0.8224 0.0000
vt 0.4802 0.9838 0.0000
vt 0.9691 0.9398 0.0000
vt 0.9384 0.7771 0.0000
vt 0.9719 0.7806 0.0000
vt 0.9356 0.9363 0.0000
vt 0.7785 0.1834 0.0000
vt 0.7929 0.0468 0.0000
vt 0.7952 0.2065 0.0000
vt 0.7768 0.0694 0.0000
vt 0.7596 0.0121 0.0000
vt 0.6127 0.0668 0.0000
vt 0.6283 0.0100 0.0000
vt 0.7629 0.2402 0.0000
vt 0.6316 0.2381 0.0000
vt 0.6144 0.1808 0.0000
vt 0.5983 0.2034 0.0000
vt 0.5960 0.0437 0.0000
vt 0.4345 0.2552 0.0000
vt 0.5732 0.0224 0.0000
vt 0.5795 0.2676 0.0000
vt 0.4282 0.0100 0.0000
vt 0.1727 0.8362 0.0000
vt 0.3021 0.6022 0.0000
vt 0.2995 0.8487 0.0000
vt 0.1753 0.5897 0.0000
vt 0.3172 0.0100 0.0000
vt 0.1756 0.2731 0.0000
vt 0.1727 0.0278 0.0000
vt 0.3201 0.2552 0.0000
vt 0.4273 0.7977 0.0000
vt 0.5616 0.5438 0.0000
vt 0.5545 0.7902 0.0000
vt 0.4344 0.5513 0.0000
vt 0.5105 0.4286 0.0000
vt 0.5791 0.3165 0.0000
vt 0.5827 0.4762 0.0000
vt 0.5092 0.3716 0.0000
vt 0.5455 0.2840 0.0000
vt 0.4546 0.3745 0.0000
vt 0.4144 0.2910 0.0000
vt 0.5507 0.5121 0.0000
vt 0.4197 0.5191 0.0000
vt 0.4559 0.4316 0.0000
vt 0.3861 0.4867 0.0000
vt 0.3824 0.3270 0.0000
vt 0.3471 0.5988 0.0000
vt 0.3445 0.8453 0.0000
vt 0.3887 0.2601 0.0000
vt 0.3824 0.0149 0.0000
vt 0.3824 0.7926 0.0000
vt 0.3895 0.5462 0.0000
vt 0.3631 0.0132 0.0000
vt 0.3660 0.2584 0.0000
vt 0.1842 0.9183 0.0000
vt 0.1727 0.8652 0.0000
vt 0.1838 0.8663 0.0000
vt 0.1731 0.9172 0.0000
vt 0.7671 0.1703 0.0000
vt 0.7570 0.1180 0.0000
vt 0.7682 0.1173 0.0000
vt 0.7559 0.1711 0.0000
vt 0.3626 0.3415 0.0000
vt 0.3520 0.2907 0.0000
vt 0.3631 0.2895 0.0000
vt 0.3515 0.3426 0.0000
vt 0.7330 0.0873 0.0000
vt 0.6787 0.0975 0.0000
vt 0.6799 0.0864 0.0000
vt 0.7318 0.0985 0.0000
vt 0.0100 0.8890 0.0000
vt 0.0659 0.9431 0.0000
vt 0.0113 0.9460 0.0000
vt 0.0646 0.8860 0.0000
vt 0.5875 0.8432 0.0000
vt 0.6128 0.8854 0.0000
vt 0.5863 0.9848 0.0000
vt 0.6129 0.8646 0.0000
vt 0.6123 0.9374 0.0000
vt 0.6121 0.9582 0.0000
vt 0.6234 0.9363 0.0000
vt 0.6239 0.8843 0.0000
vt 0.9491 0.7207 0.0000
vt 0.9390 0.6683 0.0000
vt 0.9502 0.6676 0.0000
vt 0.9379 0.7214 0.0000
vt 0.5337 0.8224 0.0000
vt 0.5451 0.8756 0.0000
vt 0.5341 0.8744 0.0000
vt 0.5448 0.8236 0.0000
vt 0.6470 0.1711 0.0000
vt 0.6368 0.1168 0.0000
vt 0.6479 0.1180 0.0000
vt 0.6358 0.1699 0.0000
vt 0.6785 0.1067 0.0000
vt 0.7294 0.1687 0.0000
vt 0.6750 0.1636 0.0000
vt 0.7330 0.1118 0.0000
vt 0.9192 0.6647 0.0000
vt 0.8955 0.7197 0.0000
vt 0.8964 0.6651 0.0000
vt 0.9177 0.7591 0.0000
vt 0.8385 0.7206 0.0000
vt 0.8151 0.7606 0.0000
vt 0.8394 0.6659 0.0000
vt 0.8166 0.6662 0.0000
vt 0.7391 0.5438 0.0000
vt 0.5924 0.8185 0.0000
vt 0.5863 0.5747 0.0000
vt 0.7452 0.7876 0.0000
vt 0.8199 0.0100 0.0000
vt 0.9075 0.1847 0.0000
vt 0.8238 0.1811 0.0000
vt 0.9036 0.0136 0.0000
vt 0.3824 0.8224 0.0000
vt 0.4244 0.8341 0.0000
vt 0.3835 0.9784 0.0000
vt 0.4555 0.9672 0.0000
vt 0.4549 0.8736 0.0000
vt 0.4255 0.9900 0.0000
vt 0.7876 0.6587 0.0000
vt 0.9502 0.6480 0.0000
vt 0.9430 0.6564 0.0000
vt 0.7791 0.6505 0.0000
vt 0.9410 0.5438 0.0000
vt 0.7699 0.5463 0.0000
vt 0.1797 0.5600 0.0000
vt 0.3281 0.3028 0.0000
vt 0.3351 0.5733 0.0000
vt 0.1727 0.2895 0.0000
vt 0.8932 0.7784 0.0000
vt 0.9109 0.9482 0.0000
vt 0.8971 0.9495 0.0000
vt 0.9070 0.7771 0.0000
vt 0.8554 0.7799 0.0000
vt 0.8593 0.9509 0.0000
vt 0.0100 0.4366 0.0000
vt 0.0610 0.1904 0.0000
vt 0.0421 0.4504 0.0000
vt 0.1480 0.1920 0.0000
vt 0.0586 0.4488 0.0000
vt 0.0302 0.1030 0.0000
vt 0.1143 0.0763 0.0000
vt 0.0306 0.0551 0.0000
vt 0.0156 0.8696 0.0000
vt 0.0171 0.8217 0.0000
vt 0.1001 0.8517 0.0000
vt 0.0100 0.4876 0.0000
vt 0.0426 0.4751 0.0000
vt 0.0513 0.7356 0.0000
vt 0.1383 0.7374 0.0000
vt 0.0590 0.4773 0.0000
vt 0.1094 0.0324 0.0000
vt 0.0206 0.0100 0.0000
vt 0.1089 0.0651 0.0000
vt 0.7777 0.7395 0.0000
# 194 texture coords

g 8
f 1/1/1 2/2/2 3/3/3 
f 1/1/1 4/4/4 2/2/2 
f 5/5/5 6/6/6 7/7/7 
f 5/5/5 8/8/8 6/6/6 
f 7/7/7 4/9/4 1/10/1 
f 7/7/7 6/6/6 4/9/4 
f 6/6/6 9/11/9 4/9/4 
f 6/6/6 10/12/10 9/11/9 
f 8/13/8 11/14/11 12/15/12 
f 8/13/8 5/16/5 11/14/11 
f 13/17/13 2/18/2 11/19/11 
f 13/17/13 3/20/3 2/18/2 
f 11/19/11 14/21/14 12/22/12 
f 11/19/11 2/18/2 14/21/14 
f 2/18/2 15/23/15 14/21/14 
f 2/18/2 16/24/16 15/23/15 
f 3/25/3 7/26/7 1/27/1 
f 3/25/3 13/28/13 7/26/7 
f 12/29/12 6/30/6 8/31/8 
f 12/29/12 14/32/14 6/30/6 
f 11/33/11 7/34/7 13/35/13 
f 11/33/11 5/36/5 7/34/7 
f 10/37/10 14/38/14 15/39/15 
f 10/37/10 6/40/6 14/38/14 
f 16/41/16 4/42/4 9/43/9 
f 16/41/16 2/44/2 4/42/4 
f 9/45/9 17/46/17 18/47/18 
f 9/45/9 10/48/10 17/46/17 
f 10/48/10 19/49/19 17/46/17 
f 10/48/10 15/50/15 19/49/19 
f 15/50/15 20/51/20 19/49/19 
f 21/52/21 9/45/9 18/47/18 
f 21/52/21 22/53/22 9/45/9 
f 22/53/22 16/54/16 9/45/9 
f 22/53/22 23/55/23 16/54/16 
f 23/55/23 15/50/15 16/54/16 
f 23/55/23 24/56/24 15/50/15 
f 24/56/24 20/51/20 15/50/15 
f 25/57/25 17/58/17 26/59/26 
f 25/57/25 18/60/18 17/58/17 
f 20/61/20 27/62/27 19/63/19 
f 20/61/20 28/64/28 27/62/27 
f 29/65/29 23/66/23 30/67/30 
f 29/65/29 24/68/24 23/66/23 
f 31/69/31 21/70/21 32/71/32 
f 31/69/31 22/72/22 21/70/21 
f 33/73/33 25/74/25 26/75/26 
f 33/73/33 34/76/34 25/74/25 
f 34/76/34 32/77/32 25/74/25 
f 34/76/34 35/78/35 32/77/32 
f 35/78/35 31/79/31 32/77/32 
f 27/80/27 33/73/33 26/75/26 
f 27/80/27 28/81/28 33/73/33 
f 28/81/28 36/82/36 33/73/33 
f 28/81/28 29/83/29 36/82/36 
f 29/83/29 35/78/35 36/82/36 
f 29/83/29 30/84/30 35/78/35 
f 30/84/30 31/79/31 35/78/35 
f 19/63/19 26/85/26 17/86/17 
f 19/63/19 27/62/27 26/85/26 
f 18/60/18 32/87/32 21/88/21 
f 18/60/18 25/57/25 32/87/32 
f 22/72/22 30/89/30 23/90/23 
f 22/72/22 31/69/31 30/89/30 
f 24/68/24 28/91/28 20/92/20 
f 24/68/24 29/65/29 28/91/28 
f 37/93/12 33/94/33 38/95/3 
f 37/93/12 34/96/34 33/94/33 
f 39/97/8 34/98/34 37/99/12 
f 39/97/8 35/100/35 34/98/34 
f 40/101/1 35/102/35 39/103/8 
f 40/101/1 36/104/36 35/102/35 
f 38/105/3 36/106/36 40/107/1 
f 38/105/3 33/108/33 36/106/36 
f 39/109/8 38/110/3 40/111/1 
f 39/109/8 37/112/12 38/110/3 
f 41/113/37 34/114/38 42/115/39 
f 41/113/37 43/116/40 34/114/38 
f 42/115/39 33/117/41 44/118/42 
f 42/115/39 34/114/38 33/117/41 
f 34/114/38 38/119/43 33/117/41 
f 34/114/38 37/120/44 38/119/43 
f 33/121/41 40/122/11 36/123/45 
f 33/121/41 38/124/43 40/122/11 
f 36/125/45 39/126/46 35/127/16 
f 36/125/45 40/128/11 39/126/46 
f 35/129/16 37/130/44 34/131/38 
f 35/129/16 39/132/46 37/130/44 
f 40/133/11 37/134/44 39/135/46 
f 40/133/11 38/136/43 37/134/44 
f 43/137/40 35/138/16 34/139/38 
f 43/137/40 45/140/47 35/138/16 
f 45/140/47 36/141/45 35/138/16 
f 45/140/47 46/142/48 36/141/45 
f 46/142/48 33/143/41 36/141/45 
f 46/142/48 44/144/42 33/143/41 
f 47/145/49 48/146/50 49/147/51 
f 47/145/49 50/148/52 48/146/50 
f 51/149/53 49/150/51 52/151/54 
f 51/149/53 47/152/49 49/150/51 
f 52/153/54 53/154/55 51/155/53 
f 45/156/47 53/154/55 46/157/48 
f 45/156/47 54/158/56 53/154/55 
f 54/158/56 51/155/53 53/154/55 
f 42/159/39 55/160/57 41/161/37 
f 42/159/39 56/162/58 55/160/57 
f 56/162/58 57/163/59 55/160/57 
f 56/162/58 58/164/60 57/163/59 
f 59/165/61 58/166/60 60/167/62 
f 59/165/61 57/168/59 58/166/60 
f 61/169/63 60/170/62 62/171/64 
f 61/169/63 59/172/61 60/170/62 
f 50/173/52 62/171/64 48/174/50 
f 50/173/52 61/169/63 62/171/64 
f 50/175/52 47/176/49 61/177/63 
f 61/177/63 57/178/59 59/179/61 
f 61/177/63 47/176/49 57/178/59 
f 47/176/49 51/180/53 57/178/59 
f 51/180/53 55/181/57 57/178/59 
f 51/180/53 54/182/56 55/181/57 
f 53/183/55 52/184/54 56/185/58 
f 48/186/50 62/187/64 49/188/51 
f 52/184/54 58/189/60 56/185/58 
f 52/184/54 49/188/51 58/189/60 
f 49/188/51 62/187/64 58/189/60 
f 62/187/64 60/190/62 58/189/60 
f 43/191/40 54/182/56 45/192/47 
f 43/191/40 41/193/37 54/182/56 
f 41/193/37 55/181/57 54/182/56 
f 46/142/48 42/159/39 44/144/42 
f 46/142/48 53/194/55 42/159/39 
f 53/194/55 56/162/58 42/159/39 
# 132 faces

